HIERARCHY
ROOT Hips
{
	OFFSET 0.00 0.00 0.00
	CHANNELS 6 Xposition Yposition Zposition Xrotation Yrotation Zrotation
	JOINT LeftUpLeg
	{
		OFFSET 2.83210 0.00000 0.00000
		CHANNELS 3 Xrotation Yrotation Zrotation
		JOINT LeftLeg
		{
			OFFSET 0.00000 -16.27150 0.00000
			CHANNELS 3 Xrotation Yrotation Zrotation
			JOINT LeftFoot
			{
				OFFSET 0.00000 -14.95190 0.00000
				CHANNELS 3 Xrotation Yrotation Zrotation
				JOINT LeftToeBase
				{
					OFFSET 0.00000 -1.07991 4.03030
					CHANNELS 3 Xrotation Yrotation Zrotation
					End Site
					{
						OFFSET 0.00000 0.00000 2.95275
					}
				}
			}
		}
	}
	JOINT RightUpLeg
	{
		OFFSET -2.83210 0.00000 0.00000
		CHANNELS 3 Xrotation Yrotation Zrotation
		JOINT RightLeg
		{
			OFFSET 0.00000 -16.27150 0.00000
			CHANNELS 3 Xrotation Yrotation Zrotation
			JOINT RightFoot
			{
				OFFSET 0.00000 -14.95190 0.00000
				CHANNELS 3 Xrotation Yrotation Zrotation
				JOINT RightToeBase
				{
					OFFSET 0.00000 -1.07991 4.03030
					CHANNELS 3 Xrotation Yrotation Zrotation
					End Site
					{
						OFFSET 0.00000 0.00000 2.95275
					}
				}
			}
		}
	}
	JOINT Spine
	{
		OFFSET 0.00000 0.03937 0.00000
		CHANNELS 3 Xrotation Yrotation Zrotation
		JOINT Spine1
		{
			OFFSET 0.00000 8.01054 0.00000
			CHANNELS 3 Xrotation Yrotation Zrotation
			JOINT Neck
			{
				OFFSET 0.00000 8.21888 0.00000
				CHANNELS 3 Xrotation Yrotation Zrotation
				JOINT Head
				{
					OFFSET 0.00000 3.25664 0.00000
					CHANNELS 3 Xrotation Yrotation Zrotation
					End Site
					{
						OFFSET 0.00000 4.52755 0.00000
					}
				}
			}
			JOINT LeftShoulder
			{
				OFFSET 0.00000 8.21888 0.00000
				CHANNELS 3 Xrotation Yrotation Zrotation
				JOINT LeftArm
				{
					OFFSET 6.52904 -0.00002 0.00000
					CHANNELS 3 Xrotation Yrotation Zrotation
					JOINT LeftForeArm
					{
						OFFSET 10.44840 -0.00004 0.00000
						CHANNELS 3 Xrotation Yrotation Zrotation
						JOINT LeftHand
						{
							OFFSET 8.94727 -0.00003 0.00000
							CHANNELS 3 Xrotation Yrotation Zrotation
							JOINT LeftHandThumb
							{
								OFFSET 0.00000 0.00000 0.00000
								CHANNELS 3 Xrotation Yrotation Zrotation
								End Site
								{
									OFFSET 0.00000 0.00000 3.93700
								}
							}
							JOINT L_Wrist_End
							{
								OFFSET 3.93700 -0.00001 0.00000
								CHANNELS 3 Xrotation Yrotation Zrotation
							}
						}
					}
				}
			}
			JOINT RightShoulder
			{
				OFFSET 0.00000 8.21888 0.00000
				CHANNELS 3 Xrotation Yrotation Zrotation
				JOINT RightArm
				{
					OFFSET -6.52904 -0.00002 0.00000
					CHANNELS 3 Xrotation Yrotation Zrotation
					JOINT RightForeArm
					{
						OFFSET -10.44840 -0.00004 0.00000
						CHANNELS 3 Xrotation Yrotation Zrotation
						JOINT RightHand
						{
							OFFSET -8.94727 -0.00003 0.00000
							CHANNELS 3 Xrotation Yrotation Zrotation
							JOINT RightHandThumb
							{
								OFFSET 0.00000 0.00000 0.00000
								CHANNELS 3 Xrotation Yrotation Zrotation
								End Site
								{
									OFFSET 0.00000 0.00000 3.93700
								}
							}
							JOINT R_Wrist_End
							{
								OFFSET -5.39369 -0.00002 0.00000
								CHANNELS 3 Xrotation Yrotation Zrotation
							}
						}
					}
				}
			}
		}
	}
}
MOTION
Frames: 15
Frame Time: 0.008333
 12.8593 31.7571 -13.3560 10.5459 4.2662 0.2768 -10.3501 26.4690 5.8865 56.0153 -0.0000 0.0000 0.9978 15.5903 -18.4275 9.9500 0.0000 0.0000 -19.5630 -29.7878 8.2853 24.1664 -0.0000 0.0000 -25.4830 -37.2096 1.8063 19.8127 -0.0000 0.0000 -8.1622 6.3491 -5.4951 9.7456 -5.4648 1.8588 -28.9108 8.5003 4.5581 -21.7659 -44.5846 -26.6715 11.2330 4.3528 14.1863 -98.2852 5.6365 -82.1635 -0.0004 -62.8667 -0.0003 -96.6473 -15.0070 -58.9687 -0.0000 0.0000 -0.0000 -0.0000 0.0000 -0.0000 -3.7152 -0.8046 -26.5508 -101.7985 -7.8268 96.8311 -179.9989 79.0690 179.9987 -92.7374 28.8891 -3.6891 -0.0000 -0.0000 -0.0000 -0.0000 -0.0000 -0.0000
 12.8297 31.6848 -13.4457 10.4693 4.6740 0.1067 -10.3342 26.6663 5.5818 56.2629 0.0000 -0.0000 -0.6415 16.7769 -17.7018 9.9256 0.0000 -0.0000 -20.0069 -30.1778 8.2073 24.9321 -0.0000 -0.0000 -26.0076 -37.2893 1.6456 19.7595 0.0000 0.0000 -8.0302 6.4312 -5.5247 10.0362 -5.3470 1.8340 -29.0834 8.5702 4.6932 -21.2445 -44.7445 -26.2096 11.2125 3.9327 14.4976 -97.5247 5.3286 -85.0825 -0.0004 -64.4864 -0.0003 -99.5669 -16.0748 -60.0252 0.0000 0.0000 -0.0000 0.0000 0.0000 -0.0000 -3.5953 -0.1023 -26.6373 -99.6768 -7.8464 99.2136 -179.9991 76.9888 179.9989 -93.1656 29.1854 -3.4212 -0.0000 0.0000 -0.0000 -0.0000 0.0000 -0.0000
 12.7948 31.6121 -13.5460 10.4983 5.0693 -0.1564 -10.5283 26.9500 5.4553 56.5338 -0.0000 0.0000 -2.5151 18.2677 -16.4491 10.2380 0.0000 -0.0000 -20.4910 -30.5629 8.2449 25.6278 -0.0000 -0.0000 -26.4785 -37.3427 1.3112 19.8427 0.0000 0.0000 -7.9657 6.4761 -5.4987 10.3279 -5.2733 1.9154 -29.2914 8.6253 4.7954 -20.7461 -44.7999 -25.8335 11.2964 3.6586 14.6227 -96.9236 4.7415 -87.8820 -0.0005 -66.0451 -0.0003 -102.1876 -16.8720 -60.1786 -0.0000 0.0000 -0.0000 -0.0000 0.0000 -0.0000 -3.5396 0.5012 -26.3776 -97.7921 -7.3765 101.7378 -179.9992 75.4118 179.9990 -93.5821 29.6948 -3.4080 0.0000 0.0000 -0.0000 0.0000 0.0000 -0.0000
 12.7504 31.5412 -13.6590 10.6917 5.5308 -0.5265 -11.0007 27.0338 5.4416 56.8482 -0.0000 0.0000 -4.2381 19.9719 -15.1572 10.7032 -0.0000 -0.0000 -21.1105 -30.7997 8.4213 26.2382 -0.0000 -0.0000 -26.9253 -37.6486 0.8680 19.7606 0.0000 -0.0000 -7.9998 6.4830 -5.5383 10.6332 -5.1977 2.1733 -29.6822 8.7530 5.0625 -20.3259 -44.8277 -25.7517 11.3842 3.3794 14.7466 -96.3352 4.2751 -90.7203 -0.0005 -67.6100 -0.0003 -103.6465 -17.6009 -59.7098 -0.0000 0.0000 -0.0000 -0.0000 0.0000 -0.0000 -3.2411 0.8038 -26.0711 -96.2476 -6.7757 104.0987 -179.9993 73.9922 179.9990 -93.7646 30.1614 -3.8229 -0.0000 0.0000 -0.0000 -0.0000 0.0000 -0.0000
 12.7041 31.4672 -13.7718 10.8920 6.0163 -0.9108 -11.4813 27.0391 5.4677 57.1265 -0.0000 0.0000 -5.6672 21.7180 -14.2339 11.1429 0.0000 0.0000 -21.7413 -30.9967 8.6114 26.8441 -0.0000 0.0000 -27.4205 -38.0027 0.3497 19.7253 0.0000 -0.0000 -8.0327 6.5007 -5.5666 10.9453 -5.1171 2.4167 -30.2039 8.8447 5.4499 -19.9252 -44.8879 -25.9259 11.4619 3.1169 14.8733 -95.7980 3.6390 -93.4989 -0.0005 -68.9674 -0.0004 -104.8660 -18.4010 -59.2258 -0.0000 -0.0000 -0.0000 -0.0000 -0.0000 -0.0000 -3.0446 0.9840 -25.7677 -94.5923 -6.1770 106.3445 -179.9993 72.7306 179.9991 -93.7477 30.4778 -4.3387 -0.0000 0.0000 -0.0000 -0.0000 0.0000 -0.0000
 12.6505 31.3894 -13.8906 11.1712 6.5382 -1.3683 -12.1171 26.9585 5.6107 57.4276 -0.0000 0.0000 -7.0747 23.4668 -12.9725 11.1844 0.0000 -0.0000 -22.4635 -31.1314 8.8657 27.4742 -0.0000 0.0000 -27.9323 -38.5036 -0.1472 19.7372 -0.0000 -0.0000 -8.1194 6.4617 -5.5767 11.2399 -5.0801 2.7653 -30.2575 9.0168 5.5755 -19.9583 -44.9494 -25.8706 11.9467 3.0259 14.7865 -95.8257 2.7344 -96.0912 -0.0006 -69.9831 -0.0004 -106.3070 -19.1155 -59.1138 -0.0000 -0.0000 0.0000 -0.0000 -0.0000 0.0000 -2.9704 1.1767 -25.5839 -92.8309 -5.6350 108.4362 -179.9994 71.7585 179.9991 -94.1296 30.6069 -4.3759 0.0000 0.0000 0.0000 0.0000 0.0000 0.0000
 12.5963 31.3065 -14.0080 11.4271 7.0534 -1.8004 -12.7031 26.8085 5.7390 57.7021 -0.0000 0.0000 -8.4840 25.0798 -11.5931 11.4248 -0.0000 -0.0000 -23.2258 -31.2214 9.0682 28.1823 -0.0000 0.0000 -28.4673 -39.0247 -0.6189 19.7173 -0.0000 0.0000 -8.1809 6.3953 -5.6130 11.4912 -5.0409 3.1418 -30.2035 9.1174 5.5598 -19.8461 -44.9619 -25.5864 11.1740 2.6368 15.3918 -94.1073 2.2740 -98.4496 -0.0006 -71.3637 -0.0004 -107.7162 -19.9085 -58.8380 -0.0000 0.0000 0.0000 -0.0000 0.0000 0.0000 -3.1289 1.5165 -25.5907 -90.7269 -5.0995 110.2463 -179.9994 70.8106 179.9991 -94.2649 30.8462 -4.6513 0.0000 0.0000 0.0000 0.0000 0.0000 0.0000
 12.5398 31.2221 -14.1294 11.7426 7.6090 -2.2520 -13.3725 26.5715 5.9134 57.9840 -0.0000 0.0000 -9.7799 26.4378 -10.3831 11.6663 -0.0000 -0.0000 -24.0711 -31.3603 9.2461 28.9045 0.0000 0.0000 -28.9931 -39.5400 -0.8988 19.8076 0.0000 0.0000 -8.2914 6.2984 -5.6785 11.7561 -5.0054 3.6135 -30.0044 9.0148 5.1910 -19.4717 -44.8640 -24.7224 10.0133 2.1205 16.0785 -91.9583 1.8052 -100.6445 -0.0007 -72.7392 -0.0005 -108.8521 -20.6005 -58.4672 -0.0000 0.0000 0.0000 -0.0000 0.0000 0.0000 -2.5503 1.4600 -25.3988 -89.6903 -4.2754 111.8077 -179.9994 70.2287 179.9992 -94.8146 31.1311 -4.6905 -0.0000 0.0000 0.0000 -0.0000 0.0000 0.0000
 12.4885 31.1335 -14.2523 11.9979 8.1175 -2.6248 -13.9124 26.2836 5.9904 58.2486 -0.0000 0.0000 -11.1252 27.5166 -9.4061 12.1078 -0.0000 0.0000 -24.9401 -31.5493 9.3109 29.7009 -0.0000 -0.0000 -29.5595 -39.9747 -1.4295 19.8333 -0.0000 0.0000 -8.3272 6.1889 -5.7544 12.0224 -4.9700 4.0399 -29.6616 8.9669 4.7477 -19.2901 -44.7544 -23.8045 8.9749 1.6715 16.6482 -89.9980 1.1351 -102.6601 -0.0007 -74.0603 -0.0006 -110.1011 -21.3753 -58.2541 0.0000 -0.0000 -0.0000 0.0000 -0.0000 -0.0000 -2.3103 1.4535 -25.2464 -88.3963 -3.3697 113.2384 -179.9994 69.7436 179.9992 -95.5789 31.6261 -4.6469 0.0000 -0.0000 0.0000 0.0000 -0.0000 0.0000
 12.4430 31.0430 -14.3753 12.2291 8.6296 -2.9567 -14.3724 25.9173 6.0060 58.4774 -0.0000 0.0000 -12.4008 28.2974 -8.4872 12.2684 0.0000 -0.0000 -25.8079 -31.8942 9.2765 30.5383 -0.0000 0.0000 -30.1090 -40.2764 -1.8076 19.8138 -0.0000 0.0000 -8.3566 6.0947 -5.8286 12.3047 -4.9288 4.4320 -29.3236 9.0748 4.5006 -19.3962 -44.6830 -23.3105 8.3544 1.2859 17.0560 -88.5831 0.2886 -104.5064 -0.0008 -75.2676 -0.0006 -111.0838 -22.1806 -57.7770 0.0000 -0.0000 0.0000 0.0000 -0.0000 0.0000 -1.8015 1.2395 -25.0056 -87.5565 -2.2537 114.4070 -179.9994 69.3574 179.9992 -96.2228 32.3914 -4.9765 0.0000 -0.0000 -0.0000 0.0000 -0.0000 -0.0000
 12.3991 30.9499 -14.5050 12.4693 9.1229 -3.2682 -14.8268 25.4670 5.9813 58.7154 -0.0000 0.0000 -13.5944 28.8923 -7.8318 12.5236 0.0000 -0.0000 -26.7162 -32.3309 9.1727 31.4121 -0.0000 0.0000 -30.6193 -40.4756 -2.1893 19.8366 0.0000 0.0000 -8.3932 5.9694 -5.8946 12.6111 -4.9185 4.8397 -28.9642 9.1680 4.1836 -19.4907 -44.5520 -22.7455 7.9255 0.9762 17.3184 -87.5041 -0.8121 -106.1192 -0.0009 -76.3574 -0.0007 -112.2008 -23.2402 -57.6923 -0.0000 -0.0000 0.0000 -0.0000 -0.0000 0.0000 -1.3178 1.0374 -24.8028 -86.8245 -1.0355 115.3904 -179.9995 68.9989 179.9992 -96.7494 33.2031 -5.6804 0.0000 -0.0000 -0.0000 0.0000 -0.0000 -0.0000
 12.3627 30.8544 -14.6306 12.6149 9.6099 -3.5100 -15.1067 24.9793 5.8768 58.8966 -0.0000 0.0000 -14.6867 29.2940 -7.2439 12.6911 -0.0000 -0.0000 -27.5647 -32.9003 8.9447 32.3413 0.0000 0.0000 -31.1233 -40.5298 -2.4408 19.8652 0.0000 -0.0000 -8.3961 5.8374 -5.9037 12.9506 -4.9712 5.1207 -28.6694 9.3597 4.0037 -19.5712 -44.4154 -22.3601 7.8611 0.7041 17.4198 -86.8113 -2.0967 -107.4128 -0.0009 -77.4581 -0.0008 -113.1932 -24.1491 -57.3584 -0.0000 0.0000 0.0000 -0.0000 0.0000 0.0000 -0.7225 0.8678 -24.4954 -86.3920 0.4083 116.1995 -179.9995 68.7610 179.9992 -96.8002 34.4200 -6.6689 0.0000 0.0000 0.0000 0.0000 0.0000 0.0000
 12.3232 30.7574 -14.7665 12.8450 10.0959 -3.7660 -15.5053 24.3938 5.7662 59.1337 0.0000 0.0000 -15.5491 29.5707 -6.9583 12.7496 0.0000 -0.0000 -28.5309 -33.5029 8.6843 33.2854 -0.0000 0.0000 -31.5763 -40.5752 -2.8091 19.8594 -0.0000 -0.0000 -8.4562 5.7319 -5.9535 13.3046 -4.9795 5.4614 -28.3323 9.5125 3.8139 -19.7944 -44.3178 -22.0650 7.7604 0.4221 17.4552 -86.2547 -3.5828 -108.6250 -0.0010 -78.4070 -0.0008 -114.4185 -25.1379 -57.2774 -0.0000 -0.0000 -0.0000 -0.0000 -0.0000 -0.0000 -0.1217 0.5528 -24.1348 -86.1305 2.0221 116.7158 -179.9995 68.5518 179.9992 -96.7636 35.4276 -7.7661 0.0000 0.0000 0.0000 0.0000 0.0000 0.0000
 12.2854 30.6592 -14.9072 13.0812 10.5526 -3.9896 -15.8961 23.7980 5.6205 59.3750 -0.0000 0.0000 -16.4227 29.7743 -6.5825 12.9288 -0.0000 -0.0000 -29.5481 -34.0713 8.3726 34.2346 -0.0000 0.0000 -32.0245 -40.6254 -3.0612 19.8598 -0.0000 0.0000 -8.5563 5.6067 -6.0326 13.7142 -4.9994 5.8419 -28.0218 9.6295 3.5576 -19.8833 -44.1542 -21.6545 7.7851 0.1858 17.3825 -85.8681 -5.2107 -109.5709 -0.0011 -79.3419 -0.0009 -115.5227 -25.9284 -57.1419 0.0000 -0.0000 -0.0000 0.0000 -0.0000 -0.0000 0.4894 0.3000 -23.8194 -85.9805 3.6961 117.0421 -179.9995 68.3466 179.9992 -96.5717 36.1769 -8.8978 -0.0000 -0.0000 -0.0000 -0.0000 -0.0000 -0.0000
 12.2475 30.5600 -15.0484 13.2768 10.9791 -4.1828 -16.2287 23.2010 5.4608 59.6154 -0.0000 0.0000 -17.3283 29.9120 -6.0917 13.1471 0.0000 0.0000 -30.5507 -34.5705 8.0477 35.1768 -0.0000 0.0000 -32.4929 -40.7254 -3.3030 19.9015 0.0000 0.0000 -8.6089 5.3687 -5.9902 14.0768 -5.2518 5.9919 -27.8173 9.8745 3.3478 -19.5851 -43.9478 -20.9389 8.0151 0.2850 17.2253 -85.6464 -6.9651 -110.2926 -0.0012 -80.2783 -0.0010 -116.2612 -26.5632 -56.8812 0.0000 -0.0000 -0.0000 0.0000 -0.0000 -0.0000 1.2519 0.3170 -23.3864 -86.0482 5.4563 117.2512 -179.9995 68.2124 179.9992 -96.4935 36.5075 -9.7155 -0.0000 -0.0000 0.0000 -0.0000 -0.0000 0.0000
